<svg xmlns="http://www.w3.org/2000/svg" viewBox="0 0 771.01 627.23"><defs><style>.cls-1{fill:#cb0000;}.cls-2{fill:#c90000;}.cls-3{fill:#ca0000;}.cls-4{fill:#c80000;}.cls-5{fill:#a50000;}.cls-6{fill:#600000;}</style></defs><g id="Livello_2" data-name="Livello 2"><g id="Livello_1-2" data-name="Livello 1"><path class="cls-1" d="M734.89,531.17c-14.32.07-28.64.17-43,.18-39,0-77.95-.05-116.92.11-3.77,0-5.48-1.22-7-4.59q-36.42-81.76-73.12-163.42a15.87,15.87,0,0,1-1.69-6.67q.07-64.66,0-129.33c0-1,.11-2,.19-3.23,3-1.08,6-.52,8.87-.54,9.32-.06,18.57-.54,27.52-3.57,16.47-5.59,25.39-18,25.18-35.41-.06-4.48.66-9-.41-13.43-2.64-10.92-9.75-18-19.83-22.18-8.19-3.41-16.82-4.61-25.71-5.39-11.82-1-23.59-.29-35.38-.69a26.43,26.43,0,0,0-3.37.37V531.14H312.4V.81C314-.44,315.92.13,317.68.13,383.8.13,449.93,0,516.05.26c34.65.15,68.85,4.14,100.6,19,52,24.4,83.87,65,95.46,121.4,3.21,15.64,3.65,31.45,2.71,47.2-2.43,40.66-19,75.16-47.41,104.14a241.21,241.21,0,0,1-22.49,20.2c6.86,16.53,13.66,32.92,20.47,49.31q34.47,82.88,68.92,165.75c.37.91.58,1.88.87,2.83C735.08,530.49,735,530.83,734.89,531.17Z"/><path class="cls-1" d="M10.4.34,114.3.19c17.66,0,35.31.07,53-.07,3.07,0,4.77,1,6.29,3.65q66,115.41,132.21,230.71a7.55,7.55,0,0,1,.37,7.44Q247.53,384.65,189,527.42c-.9,2.21-1.65,4-4.79,4q-86.42-.21-172.85-.21l-.27-2.1C22.34,505.57,33.5,482,44.79,458.46q51.11-106.54,102.36-213c1.57-3.25,1.33-5.7-.44-8.73Q80,122.28,13.42,7.78C12.34,5.92,11.36,4,10.33,2.1,10.35,1.51,10.37.93,10.4.34Z"/><path class="cls-2" d="M558.77,607.39c4.37-10.75,8.3-20.23,12.08-29.77,3.48-8.8,7-17.62,10.09-26.55,1.24-3.56,3-5.14,6.8-4.7a73.31,73.31,0,0,0,8.38.06c1.57,1.47,1,3.24.94,4.81-.67,22.78-.78,45.56.18,68.33.21,4.77-1.52,6.29-6,5.83-2.78-.29-5.61,0-9.09,0,0-15.29-.63-30.24,1.13-45.34-2.45.28-2.36,2-2.8,3q-7.86,19.14-15.55,38.34c-1.17,2.92-2.31,5.11-6.3,5s-5.9-1.67-7.36-5.2c-5.14-12.43-10.55-24.76-15.86-37.12a11.91,11.91,0,0,0-3.23-4.77c0,3.18,0,6.35,0,9.52.18,10.31.24,20.63.66,30.93.16,4.13-1.26,5.85-5.38,5.61-2.94-.17-5.91,0-9.55,0,.45-26.42.84-52.36-.1-77.52.66-.91.74-1.13.86-1.16,12.15-2.52,12.26-2.56,17.23,8.6,6.49,14.58,12.78,29.24,19.17,43.86C556,601.4,557.08,603.65,558.77,607.39Z"/><path class="cls-3" d="M133.76,569.93c0,9.68,0,19.4,0,29.12,0,7.48.18,15,.38,22.44.08,2.84-1.08,4-3.87,3.64-.5-.06-1-.06-1.5-.07-9.92-.24-10-.24-9.2-10.48,1.37-17.61,1-35.24.51-52.86-.14-4.9-1.14-9.78-.6-15.08,3.56-.38,7-.09,10.38-1.1s4.76,1.57,6.34,3.68q18,24,35.9,47.92c1,1.39,1.76,3.17,4.1,3.9,1.25-18.18-.92-36.12-1-54.34h15.1c0,5.4,0,10.82,0,16.24-.05,18.13-.06,36.26-.25,54.39,0,2.69,1.67,6.22-2.36,7.76s-10.76.06-13.11-3c-7.75-10.2-15.43-20.45-23.16-30.66q-7.53-9.95-15.16-19.81C135.69,570.86,135.35,569.72,133.76,569.93Z"/><path class="cls-4" d="M288.2,585.66c0,23.8-16.84,42.26-38.86,41.55-16.11-.53-29-10.07-35.39-27-8.17-21.73,3.18-44.66,19.81-52.41,27.85-13,53.88,8.54,54.43,33.83C288.22,583,288.2,584.33,288.2,585.66Zm-13.08-.24c.05-15.92-11.67-28.46-26.15-28-11.82.38-21.29,10.28-23.44,24.49-2.54,16.76,10.5,32.28,26.4,31.44C264.62,612.68,275.09,600.07,275.12,585.42Z"/><path class="cls-2" d="M350.22,625c-1-26.11,2.36-52-.79-77.57,2.44-2.15,5.1-1.36,7.45-1.43,10.95-.36,21.93-1.51,32.84.36s20,10.6,19.67,23.73c-.27,9.15-2.06,16.71-9.72,22.15-2.37,1.68-1.78,3.54-.78,5.66q4.91,10.37,9.63,20.8c.87,1.91,2.31,3.76,1.14,6.61-4.09,0-8.38,0-12.66,0-2.49,0-2.82-2.09-3.51-3.65-2.9-6.52-5.74-13.07-8.43-19.69-1.3-3.19-3.42-4.51-6.85-4.64-14.32-.55-16.85,2.35-13.73,16.61a37.27,37.27,0,0,1,.4,11Zm25.35-38.71a77,77,0,0,0,8.46,0c6.88-.77,10.79-4.81,11.21-11.18.63-9.7-2.37-14.87-9.62-16.73-5.9-1.51-11.88-.92-17.84-.85-2.54,0-3.47,1.49-3.48,3.85,0,4.48-.08,9-.11,13.45C364.1,586.36,364.1,586.36,375.57,586.31Z"/><path class="cls-4" d="M498.56,625.34c-3.69,0-7.33-.07-11,0a3.21,3.21,0,0,1-3.44-2.23c-.55-1.39-1.11-2.78-1.6-4.19-4.13-12-2.11-10.91-15.52-11.28-5.83-.16-11.66.11-17.49.07-3.32,0-5.25,1.57-6.11,4.67-.22.8-.46,1.6-.71,2.39-3.69,11.83-4.39,12.23-17.31,9.89-.86-1.55.07-2.88.55-4.26,8.52-24.49,18.06-48.6,27.74-72.65,1-2.46,1.93-4.18,5.05-2.61a5.24,5.24,0,0,0,3.91.17c5.91-2.51,7.17,1.38,8.83,5.68,8.6,22.34,17.41,44.59,26.1,66.89C498.43,620.05,499.67,622.16,498.56,625.34Zm-37-63.21c-3.91,10.23-7.53,19.64-11.09,29.07-1.11,2.95.65,4.06,3.21,4.11,5.32.1,10.65.07,16,0,3-.06,4.29-1.67,3.29-4.61A279,279,0,0,0,461.57,562.13Z"/><path class="cls-4" d="M695.66,624.38c2.93-8.12,5.69-16.23,8.76-24.22,6.74-17.5,13.67-34.93,20.43-52.43,1-2.6,2-4,5-2.48a5.26,5.26,0,0,0,3.92.1c5.45-2.32,7,.8,8.67,5.19,8.76,23,17.79,45.8,26.72,68.68.6,1.54,1.11,3.1,1.82,5.09-4.82,1.87-9.64,1.22-14.25.66-1.76-.21-2.08-3.16-2.72-5-4.55-12.94-1.53-12-17.27-12.32-5-.1-10,.08-15,0-4-.08-6.68,1.44-7.51,5.57-.13.65-.33,1.29-.52,1.92C710.3,626.36,708.29,627.45,695.66,624.38ZM732.71,562c-4.11,10.87-7.65,20.29-11.23,29.69-.87,2.28.55,3.39,2.27,3.45,6,.2,12,.19,18,0,1.55-.05,3.53-.8,2.75-3.19A312.33,312.33,0,0,0,732.71,562Z"/><path class="cls-2" d="M.19,546.57h14.7A30.32,30.32,0,0,1,15,558.79c-1.06,5.66-.32,11.27-.69,16.88-.18,2.83,1.24,3.79,3.91,3.83,9.24.15,16.73-2.74,20.69-11.75q3.3-7.53,6.24-15.21c2.9-7.54,8.23-9.39,16.09-5.21-3,12.54-7.36,24.5-17,33.64-3.19,3-3.13,5.41-1.4,9.1A144,144,0,0,0,60.13,618c1.26,1.59,3.39,3.17,2.37,5.65-1.14,2.77-3.78,1.21-5.74,1.62-7.34,1.52-11.84-1.8-15-8.23s-7-12.84-10.29-19.38c-3.61-7.25-5.34-8.32-13.23-6.91-1.14.2-2.26.57-3.52.89-1.56,7.61.63,15.13.62,22.7,0,12.78,1.7,10.84-11.13,11-1.13,0-2.26-.11-4.25-.21C1.39,598.94.64,573,.19,546.57Z"/><path class="cls-2" d="M635.93,547.5c-.26,9-.41,18-.83,26.93-.19,3.93,1.22,5.23,5.18,5.11,9-.28,15.78-3.74,19.42-12.23,2.43-5.64,4.76-11.34,6.8-17.13,1-2.76,2.19-4.12,5.32-3.81s6.25.06,10.1.06c-2.92,12.6-6.79,24.19-15.81,33.06-4.19,4.11-4.65,7.26-2,12.45,4.8,9.59,10.83,18.3,17.14,26.87,1.19,1.61,2.71,3.23,1.51,5.36-1,1.81-3,.8-4.57,1.09-8,1.5-13.12-1.82-16.41-9.2-2.63-5.9-6.35-11.32-9.15-17.15-4.46-9.3-6.88-10.44-17.25-7-1.39,8.9.78,17.77.69,26.69-.07,6.76,0,6.76-6.9,6.77h-7.35c-.62-2.17-1.07-73.42-.55-78.5,4.52-.87,9.16-.24,13.75-.39Z"/><path class="cls-3" d="M80.64,546.56H95.51c1.4,2.58.86,5.32.61,7.83-1.83,17.89-.43,35.82-.7,53.72-.06,4.4.89,8.85.88,13.33,0,2.69-.94,4-3.78,3.93-14.94-.23-12.74,1.75-12-11.4.89-16.08,1.25-32.13.7-48.21C81,559.53,79.66,553.32,80.64,546.56Z"/><path class="cls-5" d="M10.4.34c0,.59-.05,1.17-.07,1.76C9.76,1.49,8.67.87,10.4.34Z"/><path class="cls-5" d="M11.12,529.12l.27,2.1C9.59,530.74,10.38,529.93,11.12,529.12Z"/><path class="cls-5" d="M734.89,531.17c.1-.34.19-.68.29-1C735.67,530.65,736.06,531.12,734.89,531.17Z"/><path class="cls-6" d="M635.93,547.5l-.95-1A.9.9,0,0,1,635.93,547.5Z"/></g></g></svg>